<?xml version="1.0" encoding="UTF-8"?>
<svg id="Calque_1" data-name="Calque 1" xmlns="http://www.w3.org/2000/svg" viewBox="0 0 340.16 340.16">
  <defs>
    <style>
      .cls-1 {
        fill: none;
      }

      .cls-1, .cls-2 {
        stroke-width: 0px;
      }

      .cls-2 {
        fill: #e42313;
      }
    </style>
  </defs>
  <path class="cls-2" d="M61.64,213.58c-7.05-1.44-8.49-6.29-8.46-12.49.12-28.21.09-56.43,0-84.64-.01-4.02,1.14-7.19,4.03-10.04,6.9-6.82,13.73-13.72,20.36-20.81,3.08-3.29,6.52-4.85,10.96-4.63,2.96.15,5.94.03,9.27.03.31-5.69.36-11.22.98-16.68.68-6.01,1.44-12.08,2.95-17.92,3.94-15.27,14.68-21.35,29.95-17.41,11.4,2.95,20.41,9.79,28.55,17.91,2.65,2.65,4.81,4.21,9.19,3.1,4.16-1.06,8.96-.17,13.38.53,2.31.37,3.72.25,5.37-1.47,7.12-7.39,14.86-14.05,24.31-18.34,10.07-4.57,19.89-5.44,29,2.35,4.69,4.01,6.94,9.41,7.83,15.19,1.4,9.05,2.18,18.19,3.16,27.3.18,1.64.02,3.3.02,5.43,4.33,0,8.3.07,12.27-.02,4.02-.09,7.21,1.32,9.89,4.38,6.48,7.4,13.29,14.52,19.54,22.09,1.81,2.19,3.06,5.56,3.08,8.4.22,28.99.14,57.98.14,86.97,0,4.84-1.73,8.42-6.6,10.3-.98.38-1.79,2.54-1.79,3.89-.1,27.31-.07,54.62-.09,81.93,0,1.54-.02,3.13-.35,4.62-.89,4.05-4.05,6.73-8.17,7.07-1.41.12-2.84.08-4.27.08-67.29,0-134.58,0-201.86,0-9.95,0-12.62-2.69-12.62-12.7,0-26.53,0-53.06,0-79.6v-4.82ZM278.75,194.94v-72.27c-22.52.73-44.73,1.46-66.97,2.18v70.09h66.97ZM71.83,123.28v71.65h65.72v-68.26c-7.33-1.17-14.23-3.01-21.19-3.24-14.72-.49-29.47-.15-44.54-.15ZM270.28,292.6v-78.93h-58.51v78.93h58.51ZM137.52,292.59v-78.93h-57.32v78.93h57.32ZM193.23,288.51v-70.95h-36.9v70.95h36.9ZM156.24,124.21v70.7h36.93v-70.7h-36.93ZM234.92,74.57c-.97-7.83-1.43-15.33-2.93-22.62-1.29-6.29-5.05-7.83-11.03-5.51-8.3,3.22-14.53,9.22-20.37,15.65-.54.6-.51,2.15-.17,3.04,3.97,10.43,4.06,20.88.6,31.46-.31.94-.02,2.79.64,3.23,3.31,2.2,6.62,4.68,10.32,5.95,11.27,3.87,17.78.35,20.33-11.19,1.47-6.63,1.8-13.51,2.61-20ZM116.66,85.66c.46,4.34,1.02,8.75,2.33,12.88,2.24,7.08,7.01,10.38,14.17,8.93,5.15-1.04,9.99-3.81,14.81-6.15.69-.33.97-2.71.59-3.86-3.58-10.94-3.72-21.75.58-32.54.36-.9.53-2.52.02-3.04-6.2-6.25-12.62-12.32-21.25-15.08-5.58-1.78-7.84-.75-9,5.01-1.54,7.67-2.22,15.51-3.27,23.28M185.18,82.12c-.11-2.12-.13-3.54-.26-4.96-.56-6.3-3.35-9.09-9.49-9.53-6.27-.45-9.9,2.05-10.72,8.44-.55,4.26-.3,8.74.36,13,.31,1.97,2.07,4.41,3.85,5.34,7.64,4,15.42-.57,16.09-9.12.1-1.29.14-2.58.17-3.17ZM267.01,104.85c-2.24-5.92-6.74-6.23-11.77-5.97-5.37.27-5.38.07-6.2,5.97h17.98ZM102.67,104.79c-1.39-2.36-2.02-5.08-3.46-5.61-5.85-2.14-10.86.03-14.29,5.61h17.76Z"/>
  <path class="cls-1" d="M278.75,194.94h-66.97v-70.09c22.24-.73,44.46-1.45,66.97-2.18v72.27Z"/>
  <path class="cls-1" d="M71.83,123.28c15.06,0,29.81-.34,44.54.15,6.96.23,13.86,2.07,21.19,3.24v68.26h-65.72v-71.65Z"/>
  <path class="cls-1" d="M270.28,292.6h-58.51v-78.93h58.51v78.93Z"/>
  <path class="cls-1" d="M137.52,292.59h-57.32v-78.93h57.32v78.93Z"/>
  <path class="cls-1" d="M193.23,288.51h-36.9v-70.95h36.9v70.95Z"/>
  <path class="cls-1" d="M156.24,124.21h36.93v70.7h-36.93v-70.7Z"/>
  <path class="cls-1" d="M234.92,74.57c-.81,6.49-1.14,13.37-2.61,20-2.55,11.54-9.06,15.06-20.33,11.19-3.7-1.27-7.01-3.75-10.32-5.95-.66-.44-.95-2.28-.64-3.23,3.46-10.58,3.37-21.03-.6-31.46-.34-.89-.37-2.44.17-3.04,5.84-6.43,12.07-12.43,20.37-15.65,5.98-2.32,9.74-.79,11.03,5.51,1.5,7.29,1.96,14.79,2.93,22.62Z"/>
  <path class="cls-1" d="M115.65,75.1c1.05-7.77,1.72-15.61,3.27-23.28,1.16-5.76,3.43-6.79,9-5.01,8.63,2.76,15.05,8.83,21.25,15.08.51.52.34,2.13-.02,3.04-4.31,10.79-4.17,21.6-.58,32.54.38,1.15.1,3.53-.59,3.86-4.82,2.33-9.66,5.1-14.81,6.15-7.17,1.45-11.94-1.86-14.17-8.93-1.31-4.13-1.87-8.55-2.33-12.88"/>
  <path class="cls-1" d="M185.18,82.12c-.03.59-.07,1.88-.17,3.17-.67,8.55-8.45,13.12-16.09,9.12-1.78-.93-3.55-3.37-3.85-5.34-.67-4.26-.91-8.74-.36-13,.82-6.39,4.45-8.89,10.72-8.44,6.14.44,8.93,3.23,9.49,9.53.13,1.41.15,2.84.26,4.96Z"/>
  <path class="cls-1" d="M267.01,104.85h-17.98c.82-5.91.83-5.7,6.2-5.97,5.03-.26,9.53.05,11.77,5.97Z"/>
  <path class="cls-1" d="M102.67,104.79h-17.76c3.44-5.58,8.44-7.75,14.29-5.61,1.44.53,2.07,3.24,3.46,5.61Z"/>
</svg>