<?xml version="1.0" encoding="UTF-8"?>
<svg id="Calque_1" data-name="Calque 1" xmlns="http://www.w3.org/2000/svg" viewBox="0 0 340.16 340.16">
  <defs>
    <style>
      .cls-1 {
        fill: #009640;
      }

      .cls-1, .cls-2 {
        stroke-width: 0px;
      }

      .cls-2 {
        fill: none;
      }
    </style>
  </defs>
  <path class="cls-1" d="M164.06,27.21c27.63.36,54.47,4.49,79.3,17.37,34.12,17.7,55.14,45.22,61.1,83.5,3.68,23.63.7,46.77-6.74,69.34-10.39,31.52-27.3,58.93-52.6,80.72-19.55,16.84-41.72,28.41-67.65,31.61-22.07,2.73-43.06-1.33-63.04-10.97-30.42-14.67-52.28-38.2-68.84-67.02-12.43-21.64-20.15-44.98-22.37-69.88-2.92-32.9,3.52-63.33,25.46-89.18,14.47-17.04,32.86-28.23,53.78-35.62,19.95-7.04,40.61-9.56,61.59-9.87ZM166.24,44.22c-25.89-.09-49,3.62-70.68,14.06-21.03,10.13-37.59,24.95-47.32,46.58-12.49,27.76-10.64,56.05-2.39,84.35,6.06,20.77,16.27,39.5,29.68,56.47,13.8,17.48,30.5,31.27,51.13,40.07,18.21,7.77,37.08,10.05,56.42,5.97,21.37-4.51,39.48-15.37,55.28-30.28,18.28-17.25,31.51-37.89,40.44-61.23,8.37-21.85,12.32-44.5,9.15-67.91-4.71-34.72-23.95-58.97-55.08-74-21.62-10.44-44.76-14.3-66.61-14.08Z"/>
  <path class="cls-2" d="M166.24,44.22c21.85-.22,44.99,3.64,66.61,14.08,31.13,15.03,50.37,39.28,55.08,74,3.18,23.41-.78,46.06-9.15,67.91-8.93,23.33-22.16,43.98-40.44,61.23-15.8,14.91-33.9,25.77-55.28,30.28-19.33,4.08-38.21,1.79-56.42-5.97-20.63-8.8-37.32-22.59-51.13-40.07-13.41-16.97-23.62-35.7-29.68-56.47-8.25-28.3-10.09-56.59,2.39-84.35,9.73-21.63,26.29-36.45,47.32-46.58,21.67-10.44,44.79-14.15,70.68-14.06ZM254.41,119.72c.16-12.05-1.98-20.85-6.23-28.18-4.71-8.13-13-12.12-22.26-11-10.51,1.27-18.41,7.05-25.05,14.65-13.6,15.58-20.65,34.01-21.51,54.54-.43,10.2,1.36,20.31,7.89,28.79,5,6.5,11.54,9.43,19.93,8.56,9.06-.94,16.31-5.33,22.42-11.51,15.94-16.1,23.3-36,24.82-55.84ZM70.44,113.27c.61,21.35,6.46,37.88,16.86,52.82,5.68,8.16,12.73,14.89,22.01,18.91,12.16,5.28,24.43,1.43,30.42-9.45,3.56-6.47,5.45-13.43,5.78-20.77.76-16.81-4.02-32.25-12.24-46.69-5.26-9.24-11.8-17.46-21.12-23-16.02-9.52-32.49-5.04-38.43,13.14-1.89,5.79-2.63,11.95-3.28,15.04ZM164.2,260.31c6.1-1.29,12.42-1.94,18.25-4,15.43-5.47,25.19-16.19,27.6-32.77.55-3.77,1.3-8.02-2.79-10.5-3.89-2.35-6.6.76-9.32,2.81-5.66,4.25-11.68,7.84-18.65,9.33-18.36,3.92-35.54,1.86-50.55-10.53-2.19-1.8-4.6-3.34-7.59-1.74-2.89,1.55-3.21,4.3-3.17,7.18.12,8.67,3.05,16.42,8.49,23.01,9.69,11.73,22.77,16.11,37.73,17.21Z"/>
  <path class="cls-1" d="M254.41,119.72c-1.52,19.84-8.88,39.74-24.82,55.84-6.11,6.17-13.36,10.56-22.42,11.51-8.39.87-14.93-2.05-19.93-8.56-6.53-8.48-8.32-18.59-7.89-28.79.87-20.53,7.91-38.96,21.51-54.54,6.64-7.6,14.54-13.38,25.05-14.65,9.26-1.12,17.55,2.87,22.26,11,4.25,7.34,6.39,16.13,6.23,28.18Z"/>
  <path class="cls-1" d="M70.44,113.27c.65-3.09,1.39-9.25,3.28-15.04,5.94-18.18,22.41-22.66,38.43-13.14,9.31,5.54,15.85,13.75,21.12,23,8.23,14.44,13.01,29.88,12.24,46.69-.33,7.34-2.22,14.3-5.78,20.77-5.99,10.88-18.26,14.73-30.42,9.45-9.27-4.02-16.33-10.74-22.01-18.91-10.4-14.94-16.24-31.48-16.86-52.82Z"/>
  <path class="cls-1" d="M164.2,260.31c-14.96-1.11-28.04-5.49-37.73-17.21-5.45-6.59-8.37-14.34-8.49-23.01-.04-2.88.28-5.63,3.17-7.18,3-1.6,5.41-.06,7.59,1.74,15.02,12.38,32.19,14.45,50.55,10.53,6.97-1.49,12.98-5.07,18.65-9.33,2.72-2.04,5.43-5.16,9.32-2.81,4.09,2.47,3.34,6.73,2.79,10.5-2.41,16.58-12.17,27.3-27.6,32.77-5.82,2.06-12.15,2.71-18.25,4Z"/>
</svg>