<?xml version="1.0" encoding="UTF-8"?>
<svg id="Calque_1" data-name="Calque 1" xmlns="http://www.w3.org/2000/svg" viewBox="0 0 340.16 340.16">
  <defs>
    <style>
      .cls-1 {
        fill: none;
      }

      .cls-1, .cls-2 {
        stroke-width: 0px;
      }

      .cls-2 {
        fill: #312783;
      }
    </style>
  </defs>
  <path class="cls-1" d="M240.74,102.63c-7.37,1.44-8.55,1.09-12.27-5.44-.73-1.27-1.43-2.56-2.21-3.8-13.61-21.62-33.19-32.78-59.22-33.61-2.79.24-6.06.43-9.3.83-31.2,3.83-53.82,25.56-58.64,56.28-1.21,7.69-3.78,9.94-11.68,10.21-.23,0-.45,0-.68.02-12.74.73-23.73,5.37-32.18,15.08-15.77,18.12-14.96,47.75,3.48,63.47,6.5,5.54,14.07,8.83,22.07,11.44,7.67,2.51,8.55,4.02,8.85,11.89,1.21,31.05,28.81,50.13,58.92,42.14,7.87-2.09,14.5-6.59,20.49-12.12,5.12-4.72,9.59-4.25,14.66.07,5.3,4.51,10.77,8.99,16.72,12.54,24.37,14.52,54.22,9.38,73.14-9.64,10.02-10.07,15.41-22.5,16.59-36.53,1.05-12.5.3-24.8-7.07-35.8-4.62-6.89-4.4-7.72,1.03-14.14,5.59-6.61,9.14-14.09,10.41-22.73,4.73-32.12-22.07-56.24-53.13-50.16ZM176.57,158.22c9.43-.02,17.42,7.62,17.45,16.69.01,3.08-1.17,5.53-3.94,6.97-2.78,1.45-5.6,1.18-7.88-.91-1.14-1.05-1.58-2.83-2.48-4.19-.91-1.39-1.81-3.56-3.03-3.81-2.08-.42-2.69,1.65-3.09,3.59-.87,4.2-4.29,6.66-8.04,6.08-3.86-.6-6.38-3.78-6.3-7.97.16-8.91,8.08-16.44,17.31-16.46ZM146.15,160.3c-7.13.08-13.12-5.92-13.1-13.15.02-7.12,5.77-12.81,12.96-12.84,7.15-.03,12.87,5.69,12.87,12.88,0,7.14-5.71,13.03-12.74,13.11ZM202.38,204.57c-1.8,12.67-11.94,20.83-25.83,20.8-12.18-.02-21.65-6.52-25.08-17.35-.54-1.69-.75-3.53-.82-5.31-.17-4.5,2.81-8.06,6.96-8.52,4.44-.5,8.09,2.22,9.07,6.78,1.64,7.59,7.94,10.77,15.14,7.6,2.74-1.21,4.5-3.13,4.88-6.33.7-5.77,4.18-8.7,9.14-8.03,4.72.64,7.32,4.77,6.53,10.37ZM206.01,160.3c-6.95,0-12.91-5.98-12.95-12.99-.04-7.12,5.72-12.95,12.85-13.02,7.01-.06,13.08,5.79,13.19,12.74.12,7.06-6,13.26-13.09,13.26Z"/>
  <path class="cls-2" d="M299.68,180.57c13.78-19.27,14.75-45.86,2.06-65.74-13.22-20.69-32.4-30.33-56.94-29.06-2.71.14-4.35-.33-6.08-2.74-3.79-5.3-7.7-10.68-12.41-15.14-19.36-18.34-42.43-26.18-69.07-23.54-33.94,3.37-67.15,29.62-73.71,64.83-.16.88-1.31,1.97-2.21,2.25-4.3,1.32-8.77,2.12-13,3.61-30.06,10.56-46.56,39.72-39.48,70.78,5.27,23.1,18.6,39.5,42.03,46.41,2.2.65,2.28,2.16,2.5,3.83,4.84,37.02,43.95,61.76,79.57,50.4,8.15-2.6,15.58-6.45,22.22-11.95.68.57,1.2.98,1.7,1.41,22.05,19.45,47.46,24.94,75.33,16.48,43.99-13.36,66.04-63.36,46.89-105.19-1.18-2.58-1.07-4.28.6-6.63ZM293.87,152.79c-1.27,8.65-4.83,16.13-10.41,22.73-5.43,6.42-5.65,7.26-1.03,14.14,7.37,10.99,8.12,23.29,7.07,35.8-1.18,14.04-6.57,26.46-16.59,36.53-18.92,19.01-48.76,24.16-73.14,9.64-5.96-3.55-11.42-8.03-16.72-12.54-5.08-4.32-9.54-4.79-14.66-.07-6,5.53-12.62,10.03-20.49,12.12-30.11,7.99-57.71-11.09-58.92-42.14-.31-7.87-1.18-9.38-8.85-11.89-8-2.62-15.57-5.9-22.07-11.44-18.44-15.72-19.25-45.36-3.48-63.47,8.45-9.71,19.44-14.34,32.18-15.08.23-.01.45,0,.68-.02,7.9-.27,10.47-2.51,11.68-10.21,4.81-30.73,27.44-52.46,58.64-56.28,3.24-.4,6.51-.58,9.3-.83,26.03.83,45.61,11.98,59.22,33.61.78,1.24,1.48,2.53,2.21,3.8,3.72,6.53,4.9,6.88,12.27,5.44,31.06-6.08,57.86,18.04,53.13,50.16Z"/>
  <path class="cls-2" d="M195.85,194.2c-4.97-.67-8.44,2.26-9.14,8.03-.39,3.2-2.14,5.12-4.88,6.33-7.21,3.18-13.5,0-15.14-7.6-.98-4.56-4.62-7.28-9.07-6.78-4.15.47-7.14,4.03-6.96,8.52.07,1.78.28,3.62.82,5.31,3.43,10.82,12.9,17.32,25.08,17.35,13.89.03,24.03-8.14,25.83-20.8.8-5.6-1.8-9.73-6.53-10.37Z"/>
  <path class="cls-2" d="M165.56,182.65c3.75.58,7.17-1.88,8.04-6.08.4-1.94,1.02-4.02,3.09-3.59,1.22.25,2.12,2.42,3.03,3.81.89,1.36,1.33,3.14,2.48,4.19,2.28,2.08,5.1,2.36,7.88.91,2.76-1.44,3.95-3.9,3.94-6.97-.03-9.07-8.02-16.71-17.45-16.69-9.23.02-17.15,7.55-17.31,16.46-.08,4.2,2.44,7.38,6.3,7.97Z"/>
  <path class="cls-2" d="M205.91,134.3c-7.13.07-12.89,5.9-12.85,13.02.04,7.01,6,12.98,12.95,12.99,7.09,0,13.21-6.2,13.09-13.26-.11-6.95-6.18-12.81-13.19-12.74Z"/>
  <path class="cls-2" d="M158.88,147.2c0-7.19-5.72-12.91-12.87-12.88-7.19.03-12.94,5.73-12.96,12.84-.02,7.22,5.96,13.23,13.1,13.15,7.03-.08,12.74-5.97,12.74-13.11Z"/>
</svg>