<?xml version="1.0" encoding="UTF-8"?>
<svg id="Calque_1" data-name="Calque 1" xmlns="http://www.w3.org/2000/svg" viewBox="0 0 340.16 340.16">
  <defs>
    <style>
      .cls-1 {
        fill: #fd0;
        stroke-width: 0px;
      }
    </style>
  </defs>
  <path class="cls-1" d="M51.29,253.81c-5.12-11.06-10.8-20.89-14.34-31.43-16.31-48.48-9.61-93.75,21.62-134.49,22.91-29.88,53.61-47.96,90.91-53.07,49.26-6.75,91.37,8.44,125.37,44.87,19.58,20.98,31.14,46.09,35.38,74.42,10.87,72.62-35.38,138.37-101.75,156.88-32.83,9.16-65,6.79-96.35-6.68-1.83-.79-4.19-.98-6.18-.67-18.96,2.99-37.4,2.21-54.46-7.69-7.62-4.42-13.91-10.48-18.46-18.08-3.72-6.22-2.81-8.81,3.12-12.86,5.45-3.72,10.64-7.84,15.16-11.19ZM133.04,293.74c17.56,6.18,42.16,7.39,61.71,3.23,65.53-13.96,107.91-73.94,98.78-139.81-7.77-56.05-52.6-99.71-109.33-106.1-34.16-3.85-65,4.97-91.87,26.37-42.88,34.14-58.05,91.38-38.31,142.45.86,2.23,1.9,2.95,4.19,2.65,6.47-.83,12.95-1.59,19.44-2.22,24.43-2.38,47.18-9.77,68.05-22.74,1.66-1.03,3.2-2.9,3.88-4.72,2.93-7.87,12.04-15.63,23.66-14.09,8.69,1.16,16.14,8.21,18.26,17.22,1.66,7.05-1.98,11.51-6.55,12.52-4.3.96-9.86-2.32-10.19-8.75-.14-2.84-2.07-4.46-4.55-4.13-.5,13.38-1.02,26.5-1.42,39.63-.04,1.27.63,2.55,1.24,4.85,2.1-4.14,3.77-7.18,5.2-10.33,1.59-3.49,4.02-5.74,7.96-5.85,4.16-.12,6.64,2.28,8.36,5.82,1.56,3.21,3.28,6.34,5.16,9.93,1.95-3.84,3.56-7.21,5.38-10.46.8-1.43,1.84-2.9,3.14-3.83,3.22-2.28,7.13-1.93,10.05.53,2.99,2.53,3.91,6.64,2,10.56-4.08,8.35-8.37,16.59-12.47,24.92-1.68,3.41-4.11,5.82-7.99,5.89-4.04.07-6.67-2.29-8.34-5.89-1.48-3.19-3.13-6.3-4.98-10.01-2.01,4.01-3.42,7.5-5.43,10.6-1.23,1.9-3.14,3.72-5.17,4.66-4.13,1.9-7.21.29-11.26-5.29-6.25,13.62-15.76,24.29-28.57,32.37ZM158,203.05c-29.37,21.27-62.67,27.7-97.44,30.49.59,1.15.88,1.78,1.21,2.38,5.81,10.36,5.3,15.96-2.4,25-1.33,1.56-2.84,2.99-4.42,4.28-3.53,2.88-7.16,5.63-10.79,8.47,4.64,7.52,11.26,12.35,19.17,15.6,13.34,5.49,27.14,5.44,40.98,2.82,20.77-3.94,37.05-14.33,46.07-34.14,7.82-17.17,9.2-35.33,7.64-54.9Z"/>
  <path class="cls-1" d="M123.82,170.19c-3.89-1.96-7.1-3.52-10.26-5.18-5.04-2.65-7.02-7.75-4.73-12.01,2.35-4.37,7.4-5.69,12.52-3.15,8.21,4.07,16.36,8.26,24.58,12.31,3.37,1.66,5.29,4.3,5.3,7.97,0,3.69-2.02,6.28-5.35,7.94-8.2,4.07-16.35,8.25-24.56,12.31-5.11,2.53-10.32,1.12-12.45-3.25-2.33-4.76-.4-9.4,5.04-12.09,3.02-1.49,6.05-2.96,9.91-4.86Z"/>
  <path class="cls-1" d="M216.78,170.27c3.9,1.89,7.16,3.42,10.37,5.04,4.81,2.43,6.62,7.31,4.44,11.78-2.03,4.16-7.1,5.84-11.75,3.57-8.77-4.27-17.51-8.6-26.13-13.16-6.06-3.21-6.22-11.45-.19-14.69,8.91-4.78,18-9.25,27.12-13.63,4.07-1.96,8.75-.14,10.86,3.74,2.05,3.76,1.09,8.35-2.75,10.82-3.6,2.32-7.53,4.13-11.97,6.52Z"/>
  <path class="cls-1" d="M155.14,117.99c-.05,4.65-3.09,8.15-7.83,8.28-10.45.27-18.09,4.99-23.67,13.68-2.87,4.48-7.76,5.38-12,2.73-4.01-2.5-5.04-7.04-2.06-11.72,8.46-13.31,20.41-20.99,36.43-21.59,5.39-.2,9.18,3.52,9.13,8.62Z"/>
  <path class="cls-1" d="M194.63,109.38c15.77.63,27.51,8.18,35.86,21.21,3.29,5.14,2.47,9.43-1.62,12.04-4.48,2.86-9.1,1.77-12.42-3.2-5.47-8.19-12.84-12.82-22.86-13.12-5.38-.16-8.46-3.7-8.28-8.92.16-4.82,4.04-8.15,9.33-8Z"/>
</svg>