<?xml version="1.0" encoding="UTF-8"?>
<svg id="Calque_1" data-name="Calque 1" xmlns="http://www.w3.org/2000/svg" viewBox="0 0 340.16 340.16">
  <defs>
    <style>
      .cls-1 {
        fill: none;
      }

      .cls-1, .cls-2 {
        stroke-width: 0px;
      }

      .cls-2 {
        fill: #fd0;
      }
    </style>
  </defs>
  <path class="cls-2" d="M136.11,300.79c-11.26,9.23-25.23,6.75-33.11-.2-6.25-5.51-8.65-12.58-8.64-20.69,0-7.62,0-15.23,0-23.24-3.85-.65-7.65-1.13-11.37-1.94-28.86-6.29-48.19-26.42-53.55-55.67-2.58-14.09-1.83-28.19.12-42.24,3.35-24.14,11.16-46.72,24.6-67.15,20.73-31.53,48.47-53.79,85.71-62.5,40.3-9.42,77.08-.73,109.78,24.18,32.32,24.63,50.85,57.92,58.56,97.49,2.44,12.5,3.53,25.15,2.85,37.88-.99,18.56-6.48,35.42-20.06,48.75-10.94,10.74-24.49,16.51-39.37,19.55-8.06,1.65-6.76-.54-6.89,8.14-.11,6.89.04,13.79-.33,20.67-.54,10.05-5.99,17.06-14.98,20.88-8.8,3.74-17.48,2.97-25.27-3.16-.28-.22-.6-.4-1.19-.79-10.88,8.04-22.04,8.36-33.44.1-10.9,8.06-22.06,8.19-33.41-.06ZM111.44,264.8c0,5.32-.04,10.65.01,15.97.05,5.47,3.06,8.94,7.74,9.1,5.05.17,8.27-3,8.51-8.64.17-3.99-.04-7.99.08-11.98.18-5.78,3.51-9.32,8.51-9.25,4.91.06,8.34,3.83,8.45,9.42.08,4.23-.06,8.47.08,12.7.16,4.65,3.6,7.79,8.25,7.77,4.38-.02,7.66-3.22,7.78-7.8.11-4.35-.05-8.71.08-13.06.15-5.33,3.65-8.95,8.48-9.01,4.99-.06,8.58,3.63,8.72,9.14.1,3.99-.01,7.98.04,11.98.07,5.3,2.98,8.64,7.56,8.76,5.08.13,8.4-3.16,8.55-8.67.11-3.99-.05-7.99.05-11.98.13-5.6,3.6-9.26,8.59-9.23,4.79.03,8.15,3.59,8.36,9.06.14,3.75-.08,7.51.09,11.25.09,1.88.31,3.93,1.15,5.55,1.8,3.49,5.54,4.82,9.3,3.82,3.15-.84,5.75-4.23,5.77-7.95.07-10.89,0-21.78.05-32.67.03-5.66,3.3-9,8.89-9.35,3.14-.19,6.27-.47,9.4-.73,22.26-1.88,41.37-18.58,46.4-40.33,3.66-15.81,2.14-31.6-.96-47.14-7.71-38.6-26.65-70.33-59.93-92.31-26.63-17.59-56.05-22.77-87.08-15.8-30.09,6.76-53.73,24.12-71.44,48.9-21.02,29.42-30.58,62.55-27.46,98.8,1.38,16.11,8.07,29.75,22,39.03,9.87,6.58,20.95,9.14,32.61,9.54,8.54.29,11.37,3.06,11.37,11.68,0,4.48,0,8.95,0,13.43Z"/>
  <path class="cls-1" d="M111.44,264.8c0-4.48,0-8.95,0-13.43,0-8.62-2.82-11.39-11.37-11.68-11.66-.4-22.74-2.96-32.61-9.54-13.93-9.28-20.61-22.92-22-39.03-3.11-36.25,6.44-69.38,27.46-98.8,17.71-24.78,41.35-42.15,71.44-48.9,31.03-6.97,60.44-1.79,87.08,15.8,33.28,21.98,52.22,53.71,59.93,92.31,3.1,15.53,4.61,31.32.96,47.14-5.03,21.75-24.14,38.45-46.4,40.33-3.13.26-6.26.54-9.4.73-5.59.34-8.87,3.69-8.89,9.35-.05,10.89.02,21.78-.05,32.67-.02,3.72-2.62,7.11-5.77,7.95-3.76,1-7.5-.33-9.3-3.82-.84-1.62-1.06-3.68-1.15-5.55-.17-3.74.05-7.5-.09-11.25-.2-5.48-3.57-9.04-8.36-9.06-4.99-.03-8.46,3.63-8.59,9.23-.1,3.99.06,7.99-.05,11.98-.15,5.51-3.46,8.8-8.55,8.67-4.58-.12-7.49-3.46-7.56-8.76-.05-3.99.07-7.99-.04-11.98-.14-5.51-3.73-9.2-8.72-9.14-4.83.06-8.33,3.69-8.48,9.01-.13,4.35.03,8.71-.08,13.06-.12,4.59-3.4,7.79-7.78,7.8-4.65.02-8.09-3.12-8.25-7.77-.14-4.23,0-8.47-.08-12.7-.11-5.58-3.54-9.35-8.45-9.42-5-.06-8.33,3.47-8.51,9.25-.13,3.99.08,7.99-.08,11.98-.24,5.64-3.46,8.81-8.51,8.64-4.68-.16-7.69-3.64-7.74-9.1-.05-5.32-.01-10.65-.01-15.97ZM225.3,104.61c-20.86-.04-37.82,16.83-37.94,37.72-.12,20.69,17,37.93,37.74,37.97,20.91.05,38.04-16.85,38.1-37.59.06-21.11-16.8-38.06-37.89-38.1ZM114.53,104.61c-20.82-.06-37.89,16.91-37.93,37.71-.04,20.81,16.97,37.94,37.69,37.98,20.91.04,37.91-16.7,38.16-37.57.25-20.85-16.87-38.06-37.92-38.12ZM169.84,210.11c0-.07.01-.15.02-.22,1.45,0,2.9.07,4.34-.01,8.04-.44,13.07-4.49,13.22-11.52.18-8.24-1.8-16.1-7.21-22.61-6.14-7.4-14.79-7.35-20.6.16-5.28,6.83-7.62,14.71-6.92,23.37.44,5.41,3.58,8.95,8.89,9.97,2.71.52,5.5.59,8.25.86Z"/>
  <path class="cls-2" d="M225.3,104.61c21.09.04,37.95,17,37.89,38.1-.06,20.74-17.19,37.64-38.1,37.59-20.73-.05-37.86-17.28-37.74-37.97.12-20.9,17.09-37.76,37.94-37.72Z"/>
  <path class="cls-2" d="M114.53,104.61c21.05.06,38.16,17.27,37.92,38.12-.25,20.87-17.25,37.6-38.16,37.57-20.72-.04-37.72-17.17-37.69-37.98.04-20.8,17.11-37.77,37.93-37.71Z"/>
  <path class="cls-2" d="M169.84,210.11c-2.75-.27-5.55-.34-8.25-.86-5.31-1.02-8.45-4.56-8.89-9.97-.7-8.66,1.64-16.54,6.92-23.37,5.81-7.51,14.46-7.56,20.6-.16,5.41,6.51,7.38,14.37,7.21,22.61-.15,7.03-5.18,11.07-13.22,11.52-1.44.08-2.9.01-4.34.01,0,.07-.01.15-.02.22Z"/>
</svg>